<svg width="85" height="20" viewBox="0 0 85 20" fill="none" xmlns="http://www.w3.org/2000/svg">
<circle cx="10" cy="10" r="8" fill="#1E69CB"/>
<path d="M14 7L8 13L5 10" stroke="white" stroke-width="0.857143" stroke-linecap="round" stroke-linejoin="round"/>
<path d="M40.972 14H42.244L38.86 5.492H37.504L34.12 14H35.38L36.28 11.624H40.048L40.972 14ZM38.152 6.716L39.628 10.532H36.7L38.152 6.716ZM48.2512 14H49.6192L47.5912 10.436C48.8752 10.196 49.6552 9.248 49.6552 8.024C49.6552 6.62 48.6592 5.492 47.0512 5.492H43.8472V14H45.0352V10.52H46.3072L48.2512 14ZM45.0352 9.464V6.548H46.8352C47.7952 6.548 48.4432 7.124 48.4432 8.024C48.4432 8.9 47.7952 9.464 46.8352 9.464H45.0352ZM57.5809 6.584V5.492H50.7169V6.584H53.5609V14H54.7369V6.584H57.5809ZM60.3784 14V5.492H59.1784V14H60.3784ZM68.3657 7.424C68.1737 6.5 67.4057 5.312 65.4857 5.312C63.9137 5.312 62.6777 6.512 62.6777 7.844C62.6777 9.116 63.5417 9.908 64.7537 10.172L65.9657 10.436C66.8177 10.616 67.2377 11.144 67.2377 11.756C67.2377 12.5 66.6617 13.112 65.4857 13.112C64.2017 13.112 63.5297 12.236 63.4457 11.288L62.3177 11.648C62.4737 12.86 63.4457 14.18 65.4977 14.18C67.3097 14.18 68.4377 12.98 68.4377 11.66C68.4377 10.472 67.6457 9.584 66.2297 9.272L64.9577 8.996C64.2377 8.84 63.8657 8.372 63.8657 7.76C63.8657 6.968 64.5497 6.344 65.5097 6.344C66.6977 6.344 67.2137 7.184 67.3097 7.796L68.3657 7.424ZM76.3004 6.584V5.492H69.4364V6.584H72.2804V14H73.4564V6.584H76.3004Z" fill="white"/>
</svg>
