<svg width="56" height="56" viewBox="0 0 56 56" fill="none" xmlns="http://www.w3.org/2000/svg">
<g filter="url(#filter0_d_34411_2376)">
<path d="M28.0432 0.179932C14.8147 0.179932 4.08765 11.0878 4.08765 24.5445C4.08765 35.3096 10.9516 44.4426 20.4699 47.6643C21.6672 47.8899 22.1067 47.1358 22.1067 46.4922C22.1067 45.9112 22.0845 43.9919 22.0742 41.956C15.4097 43.4299 14.0034 39.0812 14.0034 39.0812C12.9137 36.265 11.3436 35.5161 11.3436 35.5161C9.17009 34.0039 11.5074 34.035 11.5074 34.035C13.913 34.2065 15.1796 36.5458 15.1796 36.5458C17.3162 40.2707 20.7837 39.1938 22.1507 38.5712C22.3657 36.9969 22.9866 35.9212 23.6716 35.3132C18.3508 34.6971 12.7574 32.6079 12.7574 23.2719C12.7574 20.6118 13.6932 18.4383 15.2256 16.732C14.9769 16.1179 14.1569 13.6402 15.4577 10.2841C15.4577 10.2841 17.4693 9.62928 22.0472 12.7816C23.9581 12.2418 26.0074 11.971 28.0432 11.9618C30.0791 11.971 32.13 12.2418 34.0444 12.7816C38.6167 9.62928 40.6256 10.2841 40.6256 10.2841C41.9295 13.6402 41.1091 16.1179 40.8604 16.732C42.3964 18.4383 43.3259 20.6118 43.3259 23.2719C43.3259 32.6301 37.7218 34.6906 32.3874 35.2938C33.2467 36.0499 34.0123 37.5327 34.0123 39.8059C34.0123 43.0655 33.9845 45.6893 33.9845 46.4922C33.9845 47.1406 34.4157 47.9003 35.63 47.6611C45.1431 44.4357 51.9984 35.3059 51.9984 24.5445C51.9984 11.0878 41.273 0.179932 28.0432 0.179932Z" fill="white"/>
<path d="M13.1608 35.1623C13.1081 35.2838 12.9208 35.3197 12.7503 35.2366C12.5765 35.1571 12.4789 34.9921 12.5353 34.8706C12.5868 34.746 12.7745 34.7117 12.9478 34.7944C13.122 34.8743 13.2211 35.0409 13.1608 35.1623Z" fill="white"/>
<path d="M14.131 36.263C14.0168 36.3707 13.7935 36.3207 13.6419 36.1504C13.4852 35.9806 13.4559 35.7534 13.5717 35.6441C13.6895 35.5363 13.9061 35.5868 14.0632 35.7566C14.2199 35.9285 14.2505 36.1541 14.131 36.263Z" fill="white"/>
<path d="M15.0757 37.6662C14.929 37.7699 14.689 37.6726 14.5406 37.456C14.3938 37.2393 14.3938 36.9795 14.5438 36.8754C14.6925 36.7713 14.929 36.8649 15.0793 37.0799C15.2257 37.2998 15.2257 37.5601 15.0757 37.6662Z" fill="white"/>
<path d="M16.3698 39.0219C16.2385 39.1692 15.9588 39.1297 15.7541 38.9287C15.5446 38.7322 15.4863 38.4534 15.618 38.3062C15.7509 38.1585 16.0322 38.2001 16.2385 38.3994C16.4463 38.5955 16.5098 38.8763 16.3698 39.0219Z" fill="white"/>
<path d="M18.1549 39.8091C18.097 40 17.8276 40.0867 17.5563 40.0056C17.2853 39.9221 17.108 39.6986 17.1628 39.5057C17.2191 39.3137 17.4896 39.2233 17.763 39.31C18.0335 39.3932 18.2112 39.6151 18.1549 39.8091Z" fill="white"/>
<path d="M20.1154 39.9551C20.1221 40.156 19.892 40.3227 19.6072 40.3259C19.3208 40.3327 19.0891 40.1701 19.0859 39.9724C19.0859 39.7695 19.3109 39.6045 19.5973 39.5996C19.8821 39.594 20.1154 39.7554 20.1154 39.9551Z" fill="white"/>
<path d="M21.9396 39.6392C21.9737 39.8353 21.7757 40.0366 21.4929 40.0899C21.2148 40.1419 20.9574 40.0209 20.9221 39.8264C20.8876 39.6255 21.0891 39.4241 21.3668 39.3721C21.65 39.3221 21.9035 39.4399 21.9396 39.6392Z" fill="white"/>
</g>
<defs>
<filter id="filter0_d_34411_2376" x="0" y="0" width="56" height="56" filterUnits="userSpaceOnUse" color-interpolation-filters="sRGB">
<feFlood flood-opacity="0" result="BackgroundImageFix"/>
<feColorMatrix in="SourceAlpha" type="matrix" values="0 0 0 0 0 0 0 0 0 0 0 0 0 0 0 0 0 0 127 0" result="hardAlpha"/>
<feOffset dy="4"/>
<feGaussianBlur stdDeviation="2"/>
<feComposite in2="hardAlpha" operator="out"/>
<feColorMatrix type="matrix" values="0 0 0 0 0 0 0 0 0 0 0 0 0 0 0 0 0 0 0.25 0"/>
<feBlend mode="normal" in2="BackgroundImageFix" result="effect1_dropShadow_34411_2376"/>
<feBlend mode="normal" in="SourceGraphic" in2="effect1_dropShadow_34411_2376" result="shape"/>
</filter>
</defs>
</svg>
