<svg width="111" height="36" viewBox="0 0 111 36" fill="none" xmlns="http://www.w3.org/2000/svg">
<rect width="111" height="36" rx="18" fill="#0DB145"/>
<path d="M39.4306 17.596V14.754H40.9566C41.9226 14.754 42.5106 15.3 42.5106 16.182C42.5106 17.036 41.9226 17.596 40.9566 17.596H39.4306ZM41.1946 19.262C43.1546 19.262 44.4566 17.974 44.4566 16.168C44.4566 14.376 43.1546 13.074 41.1946 13.074H37.4846V23H39.4166V19.262H41.1946ZM53.5398 23V21.152H49.1158V13.074H47.1838V23H53.5398ZM63.1112 23H65.2112L61.4312 13.074H59.1912L55.3832 23H57.4272L58.2532 20.732H62.2852L63.1112 23ZM60.2692 15.216L61.6412 18.968H58.8972L60.2692 15.216ZM69.0736 18.828V23H71.0056V18.828L74.5056 13.074H72.3356L70.1096 17.008L67.8836 13.074H65.6156L69.0736 18.828Z" fill="white"/>
</svg>
